<svg width="202" height="56" viewBox="0 0 202 56" fill="none" xmlns="http://www.w3.org/2000/svg">
<g clip-path="url(#clip0_118_99)">
<path d="M70.8893 25.8544C70.8893 25.3815 70.7316 24.9874 70.4163 24.6721C70.101 24.3568 69.7069 24.1991 69.234 24.1991H68.0516C66.7274 24.1991 65.5766 24.2622 64.5991 24.3883C63.6533 24.5144 62.9123 24.609 62.3763 24.6721V36.9685H68.9975C70.2587 36.9685 70.8893 36.3379 70.8893 35.0768V25.8544ZM62.3763 18.7603C65.4347 18.1297 68.1147 17.8144 70.4163 17.8144H72.0716C74.2156 17.8144 75.934 18.4608 77.2267 19.7535C78.5194 21.0462 79.1657 22.7645 79.1657 24.9085V35.7862C79.1657 38.1509 78.4879 40.0111 77.1321 41.3669C75.8079 42.6911 73.9634 43.3532 71.5987 43.3532H54.0999V10.2474H62.3763V18.7603ZM93.8324 19.2332V43.3532H85.556V25.6179H82.0089V19.2332H93.8324ZM85.556 9.77441H93.8324V16.3956H85.556V9.77441ZM124.116 36.2591C124.116 38.6238 123.438 40.4841 122.082 41.8398C120.758 43.1641 118.913 43.8262 116.549 43.8262H105.671C103.306 43.8262 101.446 43.1641 100.09 41.8398C98.766 40.4841 98.1039 38.6238 98.1039 36.2591V25.3815C98.1039 23.0168 98.766 21.1723 100.09 19.8481C101.446 18.4923 103.306 17.8144 105.671 17.8144H116.549C118.913 17.8144 120.758 18.4923 122.082 19.8481C123.438 21.1723 124.116 23.0168 124.116 25.3815V36.2591ZM115.839 26.0909C115.839 24.8297 115.209 24.1991 113.947 24.1991H108.272C107.011 24.1991 106.38 24.8297 106.38 26.0909V35.5497C106.38 36.8109 107.011 37.4415 108.272 37.4415H113.947C115.209 37.4415 115.839 36.8109 115.839 35.5497V26.0909ZM142.318 24.6721C140.647 24.6721 138.756 24.9874 136.643 25.6179V43.3532H128.367V18.2874H135.697L136.17 20.6521C137.652 19.6746 139.165 18.9652 140.71 18.5238C142.287 18.0509 143.611 17.8144 144.683 17.8144H146.811C148.955 17.8144 150.674 18.4608 151.966 19.7535C153.259 21.0462 153.905 22.7645 153.905 24.9085V43.3532H145.629V26.3274C145.629 25.8544 145.471 25.4603 145.156 25.145C144.841 24.8297 144.447 24.6721 143.974 24.6721H142.318ZM168.561 19.2332V43.3532H160.284V25.6179H156.737V19.2332H168.561ZM160.284 9.77441H168.561V16.3956H160.284V9.77441ZM181.582 33.4215V43.3532H173.305V10.2474H181.582V27.0368H185.365L190.567 18.2874H199.317L192.223 30.3474L199.317 43.3532H190.567L185.129 33.4215H181.582Z" fill="#535353"/>
<path d="M43.8529 3.94141H8.38235C4.02905 3.94141 0.5 7.47046 0.5 11.8238V43.3532C0.5 47.7065 4.02905 51.2355 8.38235 51.2355H43.8529C48.2062 51.2355 51.7353 47.7065 51.7353 43.3532V11.8238C51.7353 7.47046 48.2062 3.94141 43.8529 3.94141Z" fill="#438B42"/>
<path d="M39.5964 42.6435C32.2185 43.4318 25.4397 43.8259 19.2599 43.8259C16.17 43.8259 13.8999 43.1007 12.4496 41.6504C10.9992 40.2 10.274 37.9299 10.274 34.84V19.7059C10.274 16.3953 11.015 13.9991 12.4969 12.5172C14.0103 11.0038 16.4223 10.2471 19.7329 10.2471H36.7588V16.8682H21.6246C19.7329 16.8682 18.787 17.8141 18.787 19.7059V34.84C18.787 35.5652 18.9919 36.1485 19.4018 36.5899C19.8432 36.9998 20.4265 37.2047 21.1517 37.2047C24.7776 37.2047 28.0882 37.1259 31.0835 36.9682V30.1106H24.9352V24.4353H39.5964V42.6435Z" fill="white"/>
</g>
<defs>
<clipPath id="clip0_118_99">
<rect width="201" height="55.1765" fill="white" transform="translate(0.5)"/>
</clipPath>
</defs>
</svg>
